<?xml version="1.0" encoding="utf-8"?>
<!-- Generator: Adobe Illustrator 23.0.3, SVG Export Plug-In . SVG Version: 6.00 Build 0)  -->
<svg version="1.1" id="Layer_1" xmlns="http://www.w3.org/2000/svg" xmlns:xlink="http://www.w3.org/1999/xlink" x="0px" y="0px"
	 viewBox="0 0 1310 672" style="enable-background:new 0 0 1310 672;" xml:space="preserve">
<style type="text/css">
	.st0{fill:url(#SVGID_1_);}
	.st1{fill:url(#SVGID_2_);}
	.st2{fill:url(#SVGID_3_);}
	.st3{fill:url(#SVGID_4_);}
	.st4{fill:url(#SVGID_5_);}
</style>
<g>
	<linearGradient id="SVGID_1_" gradientUnits="userSpaceOnUse" x1="244.688" y1="218.2348" x2="244.688" y2="7.3437">
		<stop  offset="0.0279" style="stop-color:#00FDFA"/>
		<stop  offset="0.4607" style="stop-color:#00BDF1"/>
		<stop  offset="0.9987" style="stop-color:#0168E5"/>
	</linearGradient>
	<path class="st0" d="M412.05,64.43C353.27,2.95,277.89,7.42,277.89,7.42H32.57l108.28,114.99h161.95h13.42
		c0,0,136.07-13.42,136.07,95.83c0,0,1.15-4.07,2.28-11.1C458.68,181.72,462.65,117.37,412.05,64.43z"/>
	<linearGradient id="SVGID_2_" gradientUnits="userSpaceOnUse" x1="120.7346" y1="665.2673" x2="120.7346" y2="338.887">
		<stop  offset="0.0279" style="stop-color:#00FDFA"/>
		<stop  offset="0.4607" style="stop-color:#00BDF1"/>
		<stop  offset="0.9987" style="stop-color:#0168E5"/>
	</linearGradient>
	<path class="st1" d="M71.03,424.94c-0.04,1.38-0.12,2.69-0.12,4.11v137.99l99.66,98.22V338.89
		C127.37,349.45,92.71,371.87,71.03,424.94z"/>
	<linearGradient id="SVGID_3_" gradientUnits="userSpaceOnUse" x1="262.742" y1="425.2209" x2="262.742" y2="121.8863">
		<stop  offset="0.0279" style="stop-color:#00FDFA"/>
		<stop  offset="0.4607" style="stop-color:#00BDF1"/>
		<stop  offset="0.9987" style="stop-color:#0168E5"/>
	</linearGradient>
	<path class="st2" d="M452.3,218.23c0-109.24-136.07-95.83-136.07-95.83h-13.42c0,0,42.16-0.31,42.16,51.75
		s-51.75,53.66-160.99,53.66S70.9,344.73,70.9,344.73v80.49c0.04-0.1,0.08-0.18,0.12-0.28c21.68-53.07,56.34-75.49,99.54-86.06
		c48.57-11.88,107.92-8.78,171.77-17.4c85.05-11.48,106.8-76.74,112.24-114.36C453.44,214.17,452.3,218.23,452.3,218.23z"/>
</g>
<g>
	<path d="M337.68,431.47c0,27.61-20.44,44.65-53.43,44.65h-28.33v36.22h-23.31V386.83h51.64
		C317.24,386.83,337.68,403.68,337.68,431.47z M314.19,431.47c0-15.78-10.58-24.92-31.02-24.92h-27.25v49.85h27.25
		C303.61,456.4,314.19,447.25,314.19,431.47z"/>
	<path d="M422.31,415.52v21.34c-1.97-0.36-3.59-0.54-5.2-0.54c-17.03,0-27.79,10.04-27.79,29.58v46.44H366.9v-95.75h21.34v13.99
		C394.69,420.54,406.35,415.52,422.31,415.52z"/>
	<path d="M441.49,464.47c0-28.69,21.52-48.95,50.92-48.95c29.77,0,51.1,20.26,51.1,48.95c0,28.69-21.34,49.13-51.1,49.13
		C463.01,513.6,441.49,493.16,441.49,464.47z M520.92,464.47c0-18.29-12.19-29.94-28.51-29.94c-16.14,0-28.33,11.65-28.33,29.94
		s12.19,29.94,28.33,29.94C508.73,494.41,520.92,482.75,520.92,464.47z"/>
	<path d="M631.55,507.14c-5.38,4.3-13.45,6.46-21.52,6.46c-20.98,0-32.99-11.12-32.99-32.27v-46.08h-15.78v-17.93h15.78v-21.88
		h22.41v21.88h25.64v17.93h-25.64v45.54c0,9.32,4.66,14.34,13.27,14.34c4.66,0,9.14-1.25,12.55-3.94L631.55,507.14z"/>
	<path d="M647.86,464.47c0-28.69,21.52-48.95,50.92-48.95c29.77,0,51.1,20.26,51.1,48.95c0,28.69-21.34,49.13-51.1,49.13
		C669.38,513.6,647.86,493.16,647.86,464.47z M727.3,464.47c0-18.29-12.19-29.94-28.51-29.94c-16.14,0-28.33,11.65-28.33,29.94
		s12.19,29.94,28.33,29.94C715.1,494.41,727.3,482.75,727.3,464.47z"/>
	<path d="M837.92,507.14c-5.38,4.3-13.45,6.46-21.52,6.46c-20.98,0-32.99-11.12-32.99-32.27v-46.08h-15.78v-17.93h15.78v-21.88
		h22.41v21.88h25.64v17.93h-25.64v45.54c0,9.32,4.66,14.34,13.27,14.34c4.66,0,9.14-1.25,12.55-3.94L837.92,507.14z"/>
	<path d="M953.21,416.59l-44.83,103.46c-8.79,21.7-20.98,28.33-36.94,28.33c-9.5,0-19.54-3.23-25.64-8.79l8.96-16.5
		c4.3,4.12,10.4,6.63,16.5,6.63c7.89,0,12.55-3.77,16.85-13.27l1.61-3.77l-41.78-96.11h23.31l30.12,70.83l30.3-70.83H953.21z"/>
	<path d="M1077.83,464.47c0,29.76-20.62,49.13-48.59,49.13c-12.19,0-22.95-4.12-30.66-12.91v46.44h-22.41V416.59h21.34v12.55
		c7.53-9.14,18.65-13.63,31.74-13.63C1057.21,415.52,1077.83,434.88,1077.83,464.47z M1055.05,464.47
		c0-18.29-12.19-29.94-28.33-29.94s-28.51,11.65-28.51,29.94s12.37,29.94,28.51,29.94S1055.05,482.75,1055.05,464.47z"/>
	<path d="M1197.78,471.64h-75.13c2.69,13.99,14.34,22.95,31.02,22.95c10.76,0,19.19-3.41,26-10.4l12.01,13.81
		c-8.61,10.22-22.05,15.6-38.55,15.6c-32.1,0-52.9-20.62-52.9-49.13s20.98-48.95,49.49-48.95c27.97,0,48.41,19.54,48.41,49.49
		C1198.13,466.8,1197.95,469.49,1197.78,471.64z M1122.47,456.76h54.33c-1.79-13.81-12.37-23.31-27.08-23.31
		C1135.2,433.45,1124.62,442.77,1122.47,456.76z"/>
	<path d="M1217.67,502.84l8.61-17.03c8.43,5.56,21.34,9.5,33.35,9.5c14.17,0,20.08-3.94,20.08-10.58c0-18.29-59.17-1.08-59.17-39.27
		c0-18.11,16.32-29.94,42.14-29.94c12.73,0,27.25,3.05,35.86,8.25l-8.61,17.03c-9.14-5.38-18.29-7.17-27.43-7.17
		c-13.63,0-20.08,4.48-20.08,10.76c0,19.37,59.17,2.15,59.17,39.63c0,17.93-16.5,29.58-43.39,29.58
		C1242.24,513.6,1226.28,508.93,1217.67,502.84z"/>
</g>
<g>
	<path d="M239.93,608.57c0-10.72,8.16-18.62,19.19-18.62c5.33,0,10.14,1.78,13.39,5.33l-2.46,2.46c-2.98-3.03-6.64-4.34-10.82-4.34
		c-8.84,0-15.48,6.48-15.48,15.17c0,8.68,6.64,15.16,15.48,15.16c4.18,0,7.84-1.31,10.82-4.39l2.46,2.46
		c-3.24,3.56-8.05,5.39-13.44,5.39C248.09,627.19,239.93,619.29,239.93,608.57z"/>
	<path d="M285.85,613.12c0-8.16,5.96-13.96,14.01-13.96c8.05,0,13.96,5.8,13.96,13.96s-5.91,14.01-13.96,14.01
		C291.81,627.13,285.85,621.28,285.85,613.12z M310.06,613.12c0-6.43-4.34-10.72-10.2-10.72c-5.86,0-10.25,4.29-10.25,10.72
		s4.39,10.72,10.25,10.72C305.72,623.84,310.06,619.55,310.06,613.12z"/>
	<path d="M331.24,588.07h3.71v38.8h-3.71V588.07z"/>
	<path d="M355.14,588.07h3.71v38.8h-3.71V588.07z"/>
	<path d="M399.8,609.83v17.05h-3.56v-4.29c-1.67,2.82-4.92,4.55-9.46,4.55c-6.22,0-10.04-3.24-10.04-8c0-4.24,2.72-7.79,10.62-7.79
		h8.73v-1.67c0-4.71-2.67-7.27-7.79-7.27c-3.56,0-6.9,1.25-9.15,3.24l-1.67-2.77c2.77-2.35,6.85-3.71,11.19-3.71
		C395.77,599.16,399.8,602.71,399.8,609.83z M396.08,618.61v-4.5h-8.63c-5.33,0-7.06,2.09-7.06,4.92c0,3.19,2.56,5.18,6.95,5.18
		C391.54,624.21,394.62,622.22,396.08,618.61z"/>
	<path d="M447.6,613.12c0,8.31-5.86,14.01-13.7,14.01c-4.55,0-8.37-1.99-10.62-5.7v5.44h-3.56v-38.8h3.71v16.52
		c2.3-3.56,6.07-5.44,10.46-5.44C441.74,599.16,447.6,604.8,447.6,613.12z M443.88,613.12c0-6.43-4.44-10.72-10.25-10.72
		c-5.86,0-10.25,4.29-10.25,10.72s4.39,10.72,10.25,10.72C439.44,623.84,443.88,619.55,443.88,613.12z"/>
	<path d="M462.24,613.12c0-8.16,5.96-13.96,14.01-13.96c8.05,0,13.96,5.8,13.96,13.96s-5.91,14.01-13.96,14.01
		C468.2,627.13,462.24,621.28,462.24,613.12z M486.45,613.12c0-6.43-4.34-10.72-10.2-10.72c-5.86,0-10.25,4.29-10.25,10.72
		s4.39,10.72,10.25,10.72C482.11,623.84,486.45,619.55,486.45,613.12z"/>
	<path d="M521.49,599.16v3.61c-0.31,0-0.63-0.05-0.89-0.05c-5.75,0-9.26,3.66-9.26,10.14v14.01h-3.71v-27.51h3.56v5.39
		C512.91,601.09,516.42,599.16,521.49,599.16z"/>
	<path d="M558.72,609.83v17.05h-3.56v-4.29c-1.67,2.82-4.92,4.55-9.46,4.55c-6.22,0-10.04-3.24-10.04-8c0-4.24,2.72-7.79,10.62-7.79
		h8.73v-1.67c0-4.71-2.67-7.27-7.79-7.27c-3.56,0-6.9,1.25-9.15,3.24l-1.67-2.77c2.77-2.35,6.85-3.71,11.19-3.71
		C554.7,599.16,558.72,602.71,558.72,609.83z M555.01,618.61v-4.5h-8.63c-5.33,0-7.06,2.09-7.06,4.92c0,3.19,2.56,5.18,6.95,5.18
		C550.46,624.21,553.55,622.22,555.01,618.61z"/>
	<path d="M593.13,625.2c-1.46,1.31-3.66,1.93-5.8,1.93c-5.18,0-8.05-2.93-8.05-8V602.5h-4.92v-3.14h4.92v-6.01h3.71v6.01h8.37v3.14
		h-8.37v16.42c0,3.24,1.67,5.02,4.76,5.02c1.52,0,3.03-0.47,4.08-1.41L593.13,625.2z"/>
	<path d="M608.88,590.69c0-1.41,1.2-2.62,2.72-2.62c1.52,0,2.72,1.15,2.72,2.56c0,1.52-1.15,2.72-2.72,2.72
		C610.08,593.35,608.88,592.15,608.88,590.69z M609.71,599.37h3.71v27.51h-3.71V599.37z"/>
	<path d="M630.84,613.12c0-8.16,5.96-13.96,14.01-13.96c8.05,0,13.96,5.8,13.96,13.96s-5.91,14.01-13.96,14.01
		C636.8,627.13,630.84,621.28,630.84,613.12z M655.05,613.12c0-6.43-4.34-10.72-10.2-10.72c-5.86,0-10.25,4.29-10.25,10.72
		s4.39,10.72,10.25,10.72C650.71,623.84,655.05,619.55,655.05,613.12z"/>
	<path d="M701.54,610.92v15.95h-3.71v-15.58c0-5.8-3.03-8.79-8.26-8.79c-5.91,0-9.62,3.66-9.62,9.94v14.43h-3.71v-27.51h3.56v5.07
		c1.99-3.35,5.7-5.28,10.46-5.28C696.94,599.16,701.54,603.03,701.54,610.92z"/>
	<path d="M792.85,590.27h3.87v36.6h-3.87V590.27z"/>
	<path d="M843,610.92v15.95h-3.71v-15.58c0-5.8-3.03-8.79-8.26-8.79c-5.91,0-9.62,3.66-9.62,9.94v14.43h-3.71v-27.51h3.56v5.07
		c1.99-3.35,5.7-5.28,10.46-5.28C838.4,599.16,843,603.03,843,610.92z"/>
	<path d="M877.41,625.2c-1.46,1.31-3.66,1.93-5.8,1.93c-5.18,0-8.05-2.93-8.05-8V602.5h-4.92v-3.14h4.92v-6.01h3.71v6.01h8.37v3.14
		h-8.37v16.42c0,3.24,1.67,5.02,4.76,5.02c1.52,0,3.03-0.47,4.08-1.41L877.41,625.2z"/>
	<path d="M916.95,614.27h-23.01c0.42,5.75,4.81,9.57,10.82,9.57c3.35,0,6.33-1.2,8.42-3.61l2.09,2.41c-2.46,2.93-6.28,4.5-10.62,4.5
		c-8.58,0-14.43-5.86-14.43-14.01s5.7-13.96,13.44-13.96s13.33,5.7,13.33,13.96C917,613.43,916.95,613.85,916.95,614.27z
		 M893.94,611.5h19.5c-0.47-5.39-4.39-9.15-9.78-9.15C898.33,602.35,894.41,606.11,893.94,611.5z"/>
	<path d="M948.27,599.16v3.61c-0.31,0-0.63-0.05-0.89-0.05c-5.75,0-9.26,3.66-9.26,10.14v14.01h-3.71v-27.51h3.56v5.39
		C939.7,601.09,943.2,599.16,948.27,599.16z"/>
	<path d="M969.45,596.12v3.24h8.47v3.14h-8.37v24.37h-3.71V602.5h-4.92v-3.14h4.92v-3.4c0-4.92,2.93-8.16,8.31-8.16
		c2.04,0,4.13,0.58,5.49,1.73l-1.25,2.77c-1.05-0.89-2.51-1.36-4.08-1.36C971.12,590.95,969.45,592.73,969.45,596.12z"/>
	<path d="M1013.01,609.83v17.05h-3.56v-4.29c-1.67,2.82-4.92,4.55-9.46,4.55c-6.22,0-10.04-3.24-10.04-8
		c0-4.24,2.72-7.79,10.62-7.79h8.73v-1.67c0-4.71-2.67-7.27-7.79-7.27c-3.56,0-6.9,1.25-9.15,3.24l-1.67-2.77
		c2.77-2.35,6.85-3.71,11.19-3.71C1008.99,599.16,1013.01,602.71,1013.01,609.83z M1009.3,618.61v-4.5h-8.63
		c-5.33,0-7.06,2.09-7.06,4.92c0,3.19,2.56,5.18,6.96,5.18C1004.75,624.21,1007.83,622.22,1009.3,618.61z"/>
	<path d="M1030.27,613.12c0-8.21,5.96-13.96,14.17-13.96c4.65,0,8.58,1.83,10.77,5.44l-2.77,1.88c-1.88-2.77-4.81-4.08-8-4.08
		c-6.01,0-10.41,4.29-10.41,10.72c0,6.48,4.39,10.72,10.41,10.72c3.19,0,6.12-1.25,8-4.03l2.77,1.88c-2.2,3.56-6.12,5.44-10.77,5.44
		C1036.23,627.13,1030.27,621.33,1030.27,613.12z"/>
	<path d="M1095.8,614.27h-23.01c0.42,5.75,4.81,9.57,10.82,9.57c3.35,0,6.33-1.2,8.42-3.61l2.09,2.41c-2.46,2.93-6.28,4.5-10.62,4.5
		c-8.58,0-14.43-5.86-14.43-14.01s5.7-13.96,13.44-13.96s13.33,5.7,13.33,13.96C1095.85,613.43,1095.8,613.85,1095.8,614.27z
		 M1072.79,611.5h19.5c-0.47-5.39-4.39-9.15-9.78-9.15C1077.18,602.35,1073.26,606.11,1072.79,611.5z"/>
	<path d="M1109.45,623.73l1.67-2.93c2.2,1.73,5.91,3.08,9.78,3.08c5.23,0,7.37-1.78,7.37-4.5c0-7.16-17.83-1.52-17.83-12.39
		c0-4.5,3.87-7.84,10.88-7.84c3.56,0,7.43,0.99,9.73,2.56l-1.62,2.98c-2.41-1.67-5.28-2.35-8.11-2.35c-4.97,0-7.16,1.93-7.16,4.55
		c0,7.43,17.83,1.83,17.83,12.39c0,4.76-4.18,7.84-11.35,7.84C1116.09,627.13,1111.7,625.67,1109.45,623.73z"/>
	<path d="M1219.74,611.24v-20.97h3.87v20.81c0,8.68,4.08,12.65,11.19,12.65c7.16,0,11.24-3.97,11.24-12.65v-20.81h3.77v20.97
		c0,10.51-5.65,15.95-15.01,15.95C1225.44,627.19,1219.74,621.75,1219.74,611.24z"/>
	<path d="M1293.73,626.87l-11.82-16.11l-11.77,16.11h-4.45l13.91-18.83l-13.02-17.78h4.44l11.03,14.96l10.98-14.96h4.18
		l-12.97,17.67l13.96,18.93H1293.73z"/>
</g>
<linearGradient id="SVGID_4_" gradientUnits="userSpaceOnUse" x1="741.0778" y1="610.4812" x2="756.0195" y2="610.4812">
	<stop  offset="0.0279" style="stop-color:#00FDFA"/>
	<stop  offset="0.4607" style="stop-color:#00BDF1"/>
	<stop  offset="0.9987" style="stop-color:#0168E5"/>
</linearGradient>
<circle class="st3" cx="748.55" cy="610.48" r="7.47"/>
<linearGradient id="SVGID_5_" gradientUnits="userSpaceOnUse" x1="1171.8959" y1="610.4812" x2="1186.8375" y2="610.4812">
	<stop  offset="0.0279" style="stop-color:#00FDFA"/>
	<stop  offset="0.4607" style="stop-color:#00BDF1"/>
	<stop  offset="0.9987" style="stop-color:#0168E5"/>
</linearGradient>
<circle class="st4" cx="1179.37" cy="610.48" r="7.47"/>
</svg>
