<?xml version="1.0" encoding="utf-8"?>
<!-- Generator: Adobe Illustrator 23.0.3, SVG Export Plug-In . SVG Version: 6.00 Build 0)  -->
<svg version="1.1" id="Layer_1" xmlns="http://www.w3.org/2000/svg" xmlns:xlink="http://www.w3.org/1999/xlink" x="0px" y="0px"
	 viewBox="0 0 1081 272" style="enable-background:new 0 0 1081 272;" xml:space="preserve">
<style type="text/css">
	.st0{display:none;}
	.st1{display:inline;fill:url(#SVGID_1_);}
	.st2{display:inline;fill:url(#SVGID_2_);}
	.st3{display:inline;fill:url(#SVGID_3_);}
	.st4{fill:url(#SVGID_4_);}
	.st5{fill:url(#SVGID_5_);}
</style>
<g class="st0">
	<linearGradient id="SVGID_1_" gradientUnits="userSpaceOnUse" x1="110.688" y1="-6.7652" x2="110.688" y2="-217.6563">
		<stop  offset="0.0279" style="stop-color:#00FDFA"/>
		<stop  offset="0.4607" style="stop-color:#00BDF1"/>
		<stop  offset="0.9987" style="stop-color:#0168E5"/>
	</linearGradient>
	<path class="st1" d="M278.05-160.57c-58.78-61.49-134.16-57.02-134.16-57.02h-245.32L6.86-102.59h161.95h13.42
		c0,0,136.07-13.42,136.07,95.83c0,0,1.15-4.07,2.28-11.1C324.68-43.28,328.65-107.63,278.05-160.57z"/>
	<linearGradient id="SVGID_2_" gradientUnits="userSpaceOnUse" x1="-13.2654" y1="440.2673" x2="-13.2654" y2="113.887">
		<stop  offset="0.0279" style="stop-color:#00FDFA"/>
		<stop  offset="0.4607" style="stop-color:#00BDF1"/>
		<stop  offset="0.9987" style="stop-color:#0168E5"/>
	</linearGradient>
	<path class="st2" d="M-62.97,199.94c-0.04,1.38-0.12,2.69-0.12,4.11v137.99l99.66,98.22V113.89
		C-6.63,124.45-41.29,146.87-62.97,199.94z"/>
	<linearGradient id="SVGID_3_" gradientUnits="userSpaceOnUse" x1="128.742" y1="200.2209" x2="128.742" y2="-103.1137">
		<stop  offset="0.0279" style="stop-color:#00FDFA"/>
		<stop  offset="0.4607" style="stop-color:#00BDF1"/>
		<stop  offset="0.9987" style="stop-color:#0168E5"/>
	</linearGradient>
	<path class="st3" d="M318.3-6.77c0-109.24-136.07-95.83-136.07-95.83h-13.42c0,0,42.16-0.31,42.16,51.75S159.22,2.82,49.98,2.82
		S-63.1,119.73-63.1,119.73v80.49c0.04-0.1,0.08-0.18,0.12-0.28c21.68-53.07,56.34-75.49,99.54-86.06
		c48.57-11.88,107.92-8.78,171.77-17.4c85.05-11.48,106.8-76.74,112.24-114.36C319.44-10.83,318.3-6.77,318.3-6.77z"/>
</g>
<g>
	<path d="M112.68,60.47c0,27.61-20.44,44.65-53.43,44.65H30.92v36.22H7.61V15.83h51.64C92.24,15.83,112.68,32.68,112.68,60.47z
		 M89.19,60.47c0-15.78-10.58-24.92-31.02-24.92H30.92V85.4h27.25C78.61,85.4,89.19,76.25,89.19,60.47z"/>
	<path d="M197.31,44.52v21.34c-1.97-0.36-3.59-0.54-5.2-0.54c-17.03,0-27.79,10.04-27.79,29.58v46.44H141.9V45.59h21.34v13.99
		C169.69,49.54,181.35,44.52,197.31,44.52z"/>
	<path d="M216.49,93.47c0-28.69,21.52-48.95,50.92-48.95c29.77,0,51.1,20.26,51.1,48.95c0,28.69-21.34,49.13-51.1,49.13
		C238.01,142.6,216.49,122.16,216.49,93.47z M295.92,93.47c0-18.29-12.19-29.94-28.51-29.94c-16.14,0-28.33,11.65-28.33,29.94
		s12.19,29.94,28.33,29.94C283.73,123.41,295.92,111.75,295.92,93.47z"/>
	<path d="M406.55,136.14c-5.38,4.3-13.45,6.46-21.52,6.46c-20.98,0-32.99-11.12-32.99-32.27V64.24h-15.78V46.31h15.78V24.43h22.41
		v21.88h25.64v17.93h-25.64v45.54c0,9.32,4.66,14.34,13.27,14.34c4.66,0,9.14-1.25,12.55-3.94L406.55,136.14z"/>
	<path d="M422.86,93.47c0-28.69,21.52-48.95,50.92-48.95c29.77,0,51.1,20.26,51.1,48.95c0,28.69-21.34,49.13-51.1,49.13
		C444.38,142.6,422.86,122.16,422.86,93.47z M502.3,93.47c0-18.29-12.19-29.94-28.51-29.94c-16.14,0-28.33,11.65-28.33,29.94
		s12.19,29.94,28.33,29.94C490.1,123.41,502.3,111.75,502.3,93.47z"/>
	<path d="M612.92,136.14c-5.38,4.3-13.45,6.46-21.52,6.46c-20.98,0-32.99-11.12-32.99-32.27V64.24h-15.78V46.31h15.78V24.43h22.41
		v21.88h25.64v17.93h-25.64v45.54c0,9.32,4.66,14.34,13.27,14.34c4.66,0,9.14-1.25,12.55-3.94L612.92,136.14z"/>
	<path d="M728.21,45.59l-44.83,103.46c-8.79,21.7-20.98,28.33-36.94,28.33c-9.5,0-19.54-3.23-25.64-8.79l8.96-16.5
		c4.3,4.12,10.4,6.63,16.5,6.63c7.89,0,12.55-3.77,16.85-13.27l1.61-3.77l-41.78-96.11h23.31l30.12,70.83l30.3-70.83H728.21z"/>
	<path d="M852.83,93.47c0,29.76-20.62,49.13-48.59,49.13c-12.19,0-22.95-4.12-30.66-12.91v46.44h-22.41V45.59h21.34v12.55
		c7.53-9.14,18.65-13.63,31.74-13.63C832.21,44.52,852.83,63.88,852.83,93.47z M830.05,93.47c0-18.29-12.19-29.94-28.33-29.94
		s-28.51,11.65-28.51,29.94s12.37,29.94,28.51,29.94S830.05,111.75,830.05,93.47z"/>
	<path d="M972.78,100.64h-75.13c2.69,13.99,14.34,22.95,31.02,22.95c10.76,0,19.19-3.41,26-10.4L966.68,127
		c-8.61,10.22-22.05,15.6-38.55,15.6c-32.1,0-52.9-20.62-52.9-49.13s20.98-48.95,49.49-48.95c27.97,0,48.41,19.54,48.41,49.49
		C973.13,95.8,972.95,98.49,972.78,100.64z M897.47,85.76h54.33c-1.79-13.81-12.37-23.31-27.08-23.31
		C910.2,62.45,899.62,71.77,897.47,85.76z"/>
	<path d="M992.67,131.84l8.61-17.03c8.43,5.56,21.34,9.5,33.35,9.5c14.17,0,20.08-3.94,20.08-10.58c0-18.29-59.17-1.08-59.17-39.27
		c0-18.11,16.32-29.94,42.14-29.94c12.73,0,27.25,3.05,35.86,8.25l-8.61,17.03c-9.14-5.38-18.29-7.17-27.43-7.17
		c-13.63,0-20.08,4.48-20.08,10.76c0,19.37,59.17,2.15,59.17,39.63c0,17.93-16.5,29.58-43.39,29.58
		C1017.24,142.6,1001.28,137.93,992.67,131.84z"/>
</g>
<g>
	<path d="M14.93,237.57c0-10.72,8.16-18.62,19.19-18.62c5.33,0,10.14,1.78,13.39,5.33l-2.46,2.46c-2.98-3.03-6.64-4.34-10.82-4.34
		c-8.84,0-15.48,6.48-15.48,15.17c0,8.68,6.64,15.16,15.48,15.16c4.18,0,7.84-1.31,10.82-4.39l2.46,2.46
		c-3.24,3.56-8.05,5.39-13.44,5.39C23.09,256.19,14.93,248.29,14.93,237.57z"/>
	<path d="M60.85,242.12c0-8.16,5.96-13.96,14.01-13.96c8.05,0,13.96,5.8,13.96,13.96s-5.91,14.01-13.96,14.01
		C66.81,256.13,60.85,250.28,60.85,242.12z M85.06,242.12c0-6.43-4.34-10.72-10.2-10.72c-5.86,0-10.25,4.29-10.25,10.72
		s4.39,10.72,10.25,10.72C80.72,252.84,85.06,248.55,85.06,242.12z"/>
	<path d="M106.24,217.07h3.71v38.8h-3.71V217.07z"/>
	<path d="M130.14,217.07h3.71v38.8h-3.71V217.07z"/>
	<path d="M174.8,238.83v17.05h-3.56v-4.29c-1.67,2.82-4.92,4.55-9.46,4.55c-6.22,0-10.04-3.24-10.04-8c0-4.24,2.72-7.79,10.62-7.79
		h8.73v-1.67c0-4.71-2.67-7.27-7.79-7.27c-3.56,0-6.9,1.25-9.15,3.24l-1.67-2.77c2.77-2.35,6.85-3.71,11.19-3.71
		C170.77,228.16,174.8,231.71,174.8,238.83z M171.08,247.61v-4.5h-8.63c-5.33,0-7.06,2.09-7.06,4.92c0,3.19,2.56,5.18,6.95,5.18
		C166.54,253.21,169.62,251.22,171.08,247.61z"/>
	<path d="M222.6,242.12c0,8.31-5.86,14.01-13.7,14.01c-4.55,0-8.37-1.99-10.62-5.7v5.44h-3.56v-38.8h3.71v16.52
		c2.3-3.56,6.07-5.44,10.46-5.44C216.74,228.16,222.6,233.8,222.6,242.12z M218.88,242.12c0-6.43-4.44-10.72-10.25-10.72
		c-5.86,0-10.25,4.29-10.25,10.72s4.39,10.72,10.25,10.72C214.44,252.84,218.88,248.55,218.88,242.12z"/>
	<path d="M237.24,242.12c0-8.16,5.96-13.96,14.01-13.96c8.05,0,13.96,5.8,13.96,13.96s-5.91,14.01-13.96,14.01
		C243.2,256.13,237.24,250.28,237.24,242.12z M261.45,242.12c0-6.43-4.34-10.72-10.2-10.72c-5.86,0-10.25,4.29-10.25,10.72
		s4.39,10.72,10.25,10.72C257.11,252.84,261.45,248.55,261.45,242.12z"/>
	<path d="M296.49,228.16v3.61c-0.31,0-0.63-0.05-0.89-0.05c-5.75,0-9.26,3.66-9.26,10.14v14.01h-3.71v-27.51h3.56v5.39
		C287.91,230.09,291.42,228.16,296.49,228.16z"/>
	<path d="M333.72,238.83v17.05h-3.56v-4.29c-1.67,2.82-4.92,4.55-9.46,4.55c-6.22,0-10.04-3.24-10.04-8c0-4.24,2.72-7.79,10.62-7.79
		h8.73v-1.67c0-4.71-2.67-7.27-7.79-7.27c-3.56,0-6.9,1.25-9.15,3.24l-1.67-2.77c2.77-2.35,6.85-3.71,11.19-3.71
		C329.7,228.16,333.72,231.71,333.72,238.83z M330.01,247.61v-4.5h-8.63c-5.33,0-7.06,2.09-7.06,4.92c0,3.19,2.56,5.18,6.95,5.18
		C325.46,253.21,328.55,251.22,330.01,247.61z"/>
	<path d="M368.13,254.2c-1.46,1.31-3.66,1.93-5.8,1.93c-5.18,0-8.05-2.93-8.05-8V231.5h-4.92v-3.14h4.92v-6.01h3.71v6.01h8.37v3.14
		h-8.37v16.42c0,3.24,1.67,5.02,4.76,5.02c1.52,0,3.03-0.47,4.08-1.41L368.13,254.2z"/>
	<path d="M383.88,219.69c0-1.41,1.2-2.62,2.72-2.62c1.52,0,2.72,1.15,2.72,2.56c0,1.52-1.15,2.72-2.72,2.72
		C385.08,222.35,383.88,221.15,383.88,219.69z M384.71,228.37h3.71v27.51h-3.71V228.37z"/>
	<path d="M405.84,242.12c0-8.16,5.96-13.96,14.01-13.96c8.05,0,13.96,5.8,13.96,13.96s-5.91,14.01-13.96,14.01
		C411.8,256.13,405.84,250.28,405.84,242.12z M430.05,242.12c0-6.43-4.34-10.72-10.2-10.72c-5.86,0-10.25,4.29-10.25,10.72
		s4.39,10.72,10.25,10.72C425.71,252.84,430.05,248.55,430.05,242.12z"/>
	<path d="M476.54,239.92v15.95h-3.71v-15.58c0-5.8-3.03-8.79-8.26-8.79c-5.91,0-9.62,3.66-9.62,9.94v14.43h-3.71v-27.51h3.56v5.07
		c1.99-3.35,5.7-5.28,10.46-5.28C471.94,228.16,476.54,232.03,476.54,239.92z"/>
	<path d="M567.85,219.27h3.87v36.6h-3.87V219.27z"/>
	<path d="M618,239.92v15.95h-3.71v-15.58c0-5.8-3.03-8.79-8.26-8.79c-5.91,0-9.62,3.66-9.62,9.94v14.43h-3.71v-27.51h3.56v5.07
		c1.99-3.35,5.7-5.28,10.46-5.28C613.4,228.16,618,232.03,618,239.92z"/>
	<path d="M652.41,254.2c-1.46,1.31-3.66,1.93-5.8,1.93c-5.18,0-8.05-2.93-8.05-8V231.5h-4.92v-3.14h4.92v-6.01h3.71v6.01h8.37v3.14
		h-8.37v16.42c0,3.24,1.67,5.02,4.76,5.02c1.52,0,3.03-0.47,4.08-1.41L652.41,254.2z"/>
	<path d="M691.95,243.27h-23.01c0.42,5.75,4.81,9.57,10.82,9.57c3.35,0,6.33-1.2,8.42-3.61l2.09,2.41c-2.46,2.93-6.28,4.5-10.62,4.5
		c-8.58,0-14.43-5.86-14.43-14.01s5.7-13.96,13.44-13.96s13.33,5.7,13.33,13.96C692,242.43,691.95,242.85,691.95,243.27z
		 M668.94,240.5h19.5c-0.47-5.39-4.39-9.15-9.78-9.15C673.33,231.35,669.41,235.11,668.94,240.5z"/>
	<path d="M723.27,228.16v3.61c-0.31,0-0.63-0.05-0.89-0.05c-5.75,0-9.26,3.66-9.26,10.14v14.01h-3.71v-27.51h3.56v5.39
		C714.7,230.09,718.2,228.16,723.27,228.16z"/>
	<path d="M744.45,225.12v3.24h8.47v3.14h-8.37v24.37h-3.71V231.5h-4.92v-3.14h4.92v-3.4c0-4.92,2.93-8.16,8.31-8.16
		c2.04,0,4.13,0.58,5.49,1.73l-1.25,2.77c-1.05-0.89-2.51-1.36-4.08-1.36C746.12,219.95,744.45,221.73,744.45,225.12z"/>
	<path d="M788.01,238.83v17.05h-3.56v-4.29c-1.67,2.82-4.92,4.55-9.46,4.55c-6.22,0-10.04-3.24-10.04-8c0-4.24,2.72-7.79,10.62-7.79
		h8.73v-1.67c0-4.71-2.67-7.27-7.79-7.27c-3.56,0-6.9,1.25-9.15,3.24l-1.67-2.77c2.77-2.35,6.85-3.71,11.19-3.71
		C783.99,228.16,788.01,231.71,788.01,238.83z M784.3,247.61v-4.5h-8.63c-5.33,0-7.06,2.09-7.06,4.92c0,3.19,2.56,5.18,6.96,5.18
		C779.75,253.21,782.83,251.22,784.3,247.61z"/>
	<path d="M805.27,242.12c0-8.21,5.96-13.96,14.17-13.96c4.65,0,8.58,1.83,10.77,5.44l-2.77,1.88c-1.88-2.77-4.81-4.08-8-4.08
		c-6.01,0-10.41,4.29-10.41,10.72c0,6.48,4.39,10.72,10.41,10.72c3.19,0,6.12-1.25,8-4.03l2.77,1.88c-2.2,3.56-6.12,5.44-10.77,5.44
		C811.23,256.13,805.27,250.33,805.27,242.12z"/>
	<path d="M870.8,243.27h-23.01c0.42,5.75,4.81,9.57,10.82,9.57c3.35,0,6.33-1.2,8.42-3.61l2.09,2.41c-2.46,2.93-6.28,4.5-10.62,4.5
		c-8.58,0-14.43-5.86-14.43-14.01s5.7-13.96,13.44-13.96s13.33,5.7,13.33,13.96C870.85,242.43,870.8,242.85,870.8,243.27z
		 M847.79,240.5h19.5c-0.47-5.39-4.39-9.15-9.78-9.15C852.18,231.35,848.26,235.11,847.79,240.5z"/>
	<path d="M884.45,252.73l1.67-2.93c2.2,1.73,5.91,3.08,9.78,3.08c5.23,0,7.37-1.78,7.37-4.5c0-7.16-17.83-1.52-17.83-12.39
		c0-4.5,3.87-7.84,10.88-7.84c3.56,0,7.43,0.99,9.73,2.56l-1.62,2.98c-2.41-1.67-5.28-2.35-8.11-2.35c-4.97,0-7.16,1.93-7.16,4.55
		c0,7.43,17.83,1.83,17.83,12.39c0,4.76-4.18,7.84-11.35,7.84C891.09,256.13,886.7,254.67,884.45,252.73z"/>
	<path d="M994.74,240.24v-20.97h3.87v20.81c0,8.68,4.08,12.65,11.19,12.65c7.16,0,11.24-3.97,11.24-12.65v-20.81h3.77v20.97
		c0,10.51-5.65,15.95-15.01,15.95C1000.44,256.19,994.74,250.75,994.74,240.24z"/>
	<path d="M1068.73,255.87l-11.82-16.11l-11.77,16.11h-4.45l13.91-18.83l-13.02-17.78h4.44l11.03,14.96l10.98-14.96h4.18
		l-12.97,17.67l13.96,18.93H1068.73z"/>
</g>
<linearGradient id="SVGID_4_" gradientUnits="userSpaceOnUse" x1="516.0778" y1="239.4812" x2="531.0195" y2="239.4812">
	<stop  offset="0.0279" style="stop-color:#00FDFA"/>
	<stop  offset="0.4607" style="stop-color:#00BDF1"/>
	<stop  offset="0.9987" style="stop-color:#0168E5"/>
</linearGradient>
<circle class="st4" cx="523.55" cy="239.48" r="7.47"/>
<linearGradient id="SVGID_5_" gradientUnits="userSpaceOnUse" x1="946.8958" y1="239.4812" x2="961.8375" y2="239.4812">
	<stop  offset="0.0279" style="stop-color:#00FDFA"/>
	<stop  offset="0.4607" style="stop-color:#00BDF1"/>
	<stop  offset="0.9987" style="stop-color:#0168E5"/>
</linearGradient>
<circle class="st5" cx="954.37" cy="239.48" r="7.47"/>
</svg>
